<svg width="120" height="120" viewBox="0 0 120 120" fill="none" xmlns="http://www.w3.org/2000/svg">
      <style>
        path {
            fill: #423A32 !important;
        }
        @media (prefers-color-scheme: dark) {
            path {
                fill: #fff !important;
            }
        }
  </style>
    <path
        d="M65.83 29.937c-6.686 0-13.373.01-20.06-.002-7.362-.013-13.926 2.253-19.583 6.968-6.199 5.166-10.015 11.694-10.932 19.79C14.05 67.332 17.829 76.036 25.662 83.1c5.134 4.63 11.233 6.964 18.12 7.377 1.284.077 2.547-.001 3.822-.033.461-.01 1.004-.039 1.148.52.182.714.516 1.445.239 2.196-.112.304-.496.26-.787.284-9.559.796-17.812-2.363-24.995-8.472-6.77-5.756-9.976-13.332-11.007-22.036-2.096-17.699 12.435-33.806 28.893-35.693a44.765 44.765 0 0 1 4.999-.278c12.98-.035 25.96-.033 38.94-.02 10.013.01 18.408 5.736 21.665 15.206 2.8 8.144 1.364 15.736-4.228 22.363-3.55 4.209-8.116 6.766-13.598 7.6-.452.068-.912.087-1.368.126-.544.046-1.198.281-1.513-.335-.333-.653-.273-1.413-.085-2.112.11-.41.545-.4.91-.433 7.74-.718 13.331-4.715 16.494-11.666 5.276-11.59-1.848-25.14-14.49-27.511a16.205 16.205 0 0 0-3.03-.26c-6.653.017-13.307.009-19.961.009v.005Z"
         />
    <path
        d="M61.203 76.1V60.37c0-1.562.062-1.626 1.592-1.626 7.407-.003 14.813.007 22.22-.005 4.9-.007 8.568-3.18 9.303-8.01.676-4.441-2.71-9.173-7.13-9.983a13.373 13.373 0 0 0-2.444-.2c-7.439.006-14.879.01-22.318-.005-.597 0-1.43.28-1.545-.729-.142-1.246.455-2.086 1.52-2.221.293-.031.588-.044.883-.038 7.112-.001 14.224-.03 21.336.009 4.716.026 8.534 1.842 11.063 5.955 4.472 7.278-.4 17.261-8.887 18.067-4.865.463-9.758.116-14.639.173-2.228.03-4.457.024-6.685-.02-.914-.02-1.277.262-1.275 1.226.027 8.783.014 17.566.019 26.35 0 1.162.154 1.349 1.319 1.266a33.39 33.39 0 0 1 5.004.014c.926.073 1.299-.36 1.292-1.28-.02-3.08-.023-6.16-.008-9.242.002-.3-.162-.736.233-.864.323-.105.447.31.655.5 1.675 1.539 2.359 3.378 2.156 5.7-.193 2.21-.028 4.453-.04 6.682-.007 1.258-.242 1.497-1.502 1.502-3.537.012-7.074.013-10.611-.002-1.334-.005-1.51-.209-1.51-1.56-.003-5.31-.001-10.62-.001-15.929Z"
         />
</svg>