<svg width="497" height="113" viewBox="0 0 497 113" fill="none" xmlns="http://www.w3.org/2000/svg"><path d="M90.395 5.73c-11.144 0-22.287.015-33.433-.004-12.27-.021-23.21 3.756-32.638 11.614-10.331 8.609-16.692 19.49-18.22 32.984-2.008 17.73 4.29 32.238 17.345 44.011 8.557 7.718 18.721 11.606 30.198 12.295 2.142.128 4.247-.003 6.371-.055.77-.018 1.675-.065 1.913.866.305 1.19.862 2.409.4 3.661-.188.505-.828.433-1.313.473-15.93 1.327-29.685-3.938-41.658-14.12C8.078 87.86 2.734 75.234 1.016 60.727-2.478 31.23 21.74 4.384 49.17 1.24a74.61 74.61 0 0 1 8.332-.464C79.134.718 100.767.72 122.401.742c16.689.016 30.681 9.56 36.109 25.344 4.667 13.574 2.273 26.227-7.045 37.272-5.919 7.015-13.528 11.277-22.664 12.666-.754.114-1.52.146-2.28.21-.907.078-1.998.47-2.523-.557-.555-1.088-.453-2.355-.14-3.52.183-.683.908-.667 1.516-.723 12.9-1.196 22.219-7.857 27.491-19.442 8.792-19.316-3.082-41.899-24.15-45.852-1.653-.311-3.346-.438-5.05-.434-11.09.028-22.18.015-33.27.015v.01Z" fill="#423A32"/><path d="M82.683 82.669c0-8.74 0-17.48.002-26.219 0-2.601.102-2.71 2.652-2.71 12.345-.003 24.689.013 37.034-.007 8.167-.012 14.28-5.3 15.504-13.35 1.127-7.402-4.516-15.289-11.884-16.638a22.28 22.28 0 0 0-4.072-.335c-12.398.012-24.798.019-37.197-.006-.994-.002-2.384.466-2.575-1.215-.237-2.077.76-3.477 2.534-3.703.489-.051.98-.072 1.472-.062 11.853-.003 23.706-.051 35.56.014 7.86.044 14.222 3.071 18.437 9.926 7.455 12.129-.667 28.768-14.811 30.111-8.108.771-16.264.194-24.398.288-3.714.051-7.428.04-11.142-.033-1.524-.033-2.129.436-2.125 2.043.045 14.639.023 29.277.03 43.916.002 1.937.258 2.249 2.2 2.11 2.786-.2 5.56-.193 8.34.024 1.543.122 2.165-.601 2.153-2.132a1318.16 1318.16 0 0 1-.012-15.404c.002-.5-.271-1.226.388-1.44.537-.175.745.515 1.092.834 2.79 2.564 3.93 5.63 3.592 9.499-.322 3.685-.046 7.422-.066 11.137-.012 2.096-.404 2.494-2.504 2.502-5.894.02-11.789.023-17.685-.002-2.222-.01-2.516-.348-2.517-2.602-.004-8.849-.002-17.697-.002-26.546ZM176.232 56.769V3.999c0-2.92.003-2.92 2.855-2.92h.492c2.555.01 2.577.026 2.577 2.54.002 35.507.003 71.014 0 106.522 0 2.445-.006 2.473-2.438 2.445-3.66-.041-3.484.621-3.486-3.54V56.769ZM54.7 18.677h.818c3.439-.012 3.366-.017 3.142 3.192-.111 1.6-.982 1.892-2.282 1.836-4.364-.19-8.673.227-12.634 2.135-11.335 5.456-18.695 13.94-19.955 26.905-1.199 12.33 3.197 22.281 13.025 29.705 2.408 1.819 2.054 4.147 2.279 6.436.09.907-.776.463-1.215.25-2.532-1.226-4.704-2.98-6.75-4.87-8.531-7.883-12.823-17.635-12.638-29.272.291-18.22 15.346-34.518 33.427-36.24.92-.088 1.855-.012 2.783-.012v-.065M203.256 25.828c0-8.414 6.459-14.432 15.15-14.432 4.824 0 8.85 1.753 11.481 4.944l-4.147 3.826c-1.873-2.154-4.225-3.268-7.016-3.268-5.221 0-8.93 3.664-8.93 8.93 0 5.261 3.709 8.929 8.93 8.929 2.791 0 5.143-1.116 7.016-3.31l4.147 3.827c-2.631 3.23-6.657 4.983-11.521 4.983-8.651 0-15.11-6.019-15.11-14.43ZM261.879 28.896l-4.424-10.683-4.427 10.683h8.851Zm2.033 4.905h-12.956l-2.471 5.979h-6.618l12.437-27.907h6.379L273.16 39.78h-6.776l-2.472-5.98ZM285.186 37.03l2.193-4.865c2.351 1.713 5.859 2.91 9.208 2.91 3.828 0 5.383-1.274 5.383-2.989 0-5.222-16.226-1.636-16.226-12 0-4.742 3.827-8.69 11.76-8.69 3.508 0 7.096.838 9.687 2.47l-1.994 4.906c-2.59-1.478-5.261-2.195-7.733-2.195-3.828 0-5.302 1.435-5.302 3.19 0 5.142 16.225 1.595 16.225 11.84 0 4.663-3.867 8.65-11.84 8.65-4.424 0-8.889-1.315-11.361-3.227ZM340.458 28.896l-4.424-10.683-4.427 10.683h8.851Zm2.033 4.905h-12.956l-2.472 5.979h-6.617l12.437-27.907h6.379l12.477 27.907h-6.776l-2.472-5.98ZM222.652 77.769c0-2.998-1.945-4.75-5.798-4.75h-5.136v9.458h5.136c3.853 0 5.798-1.752 5.798-4.708Zm6.382 0c0 6.068-4.554 9.845-11.83 9.845h-5.486v7.51h-6.304V67.882h11.79c7.276 0 11.83 3.775 11.83 9.887ZM256.372 73.018h-5.136v9.496h5.136c3.854 0 5.799-1.79 5.799-4.746 0-2.998-1.945-4.75-5.799-4.75Zm5.916 22.104-5.253-7.59h-5.799v7.59h-6.304v-27.24h11.791c7.276 0 11.829 3.773 11.829 9.885 0 4.086-2.062 7.083-5.604 8.6l6.11 8.755h-6.77ZM305.66 90.064v5.06h-21.092v-27.24h20.586v5.06h-14.322v5.913h12.648v4.904h-12.648v6.303h14.828ZM346.5 95.124l-.04-16.344-8.015 13.463h-2.84l-7.978-13.114v15.995h-5.915v-27.24h5.213l10.196 16.926 10.042-16.927h5.173l.079 27.24H346.5ZM369.913 67.882h6.304v27.24h-6.304v-27.24ZM409.657 84.498l-4.318-10.428-4.32 10.428h8.638Zm1.986 4.788h-12.648l-2.412 5.836h-6.46l12.141-27.24h6.225l12.183 27.24h-6.618l-2.411-5.836ZM440.188 73.018h-8.717v-5.136h23.738v5.136h-8.717v22.104h-6.304V73.018ZM485.581 84.498l-4.318-10.428-4.32 10.428h8.638Zm1.986 4.788h-12.648l-2.412 5.836h-6.46l12.141-27.24h6.225l12.18 27.24h-6.614l-2.412-5.836Z" fill="#423A32"/></svg>